<?xml version="1.0" encoding="utf-8"?>
<!-- Generator: Adobe Illustrator 16.0.4, SVG Export Plug-In . SVG Version: 6.00 Build 0)  -->
<!DOCTYPE svg PUBLIC "-//W3C//DTD SVG 1.1//EN" "http://www.w3.org/Graphics/SVG/1.1/DTD/svg11.dtd">
<svg version="1.1" xmlns="http://www.w3.org/2000/svg" xmlns:xlink="http://www.w3.org/1999/xlink" x="0px" y="0px" width="120px"
	 height="120px" viewBox="0 0 120 120" enable-background="new 0 0 120 120" xml:space="preserve">
<g id="Layer_1">
	<circle fill="#22B8EB" cx="60" cy="60" r="60"/>
</g>
<g id="Layer_2">
	<g>
		<path id="outline_7_" fill="#FFFFFF" d="M64.936,48.08h10.218v10.444h5.165c2.386,0,4.84-0.425,7.099-1.19
			c1.11-0.376,2.356-0.9,3.451-1.559c-1.442-1.883-2.178-4.261-2.396-6.604c-0.294-3.188,0.349-7.337,2.507-9.832l1.074-1.242
			l1.279,1.029c3.222,2.589,5.932,6.206,6.409,10.33c3.88-1.141,8.436-0.871,11.854,1.103L113,51.366l-0.738,1.441
			c-2.893,5.645-8.938,7.393-14.85,7.084c-8.846,22.032-28.104,32.462-51.455,32.462c-12.063,0-23.131-4.51-29.434-15.212
			l-0.104-0.175l-0.918-1.868c-2.13-4.712-2.837-9.873-2.357-15.03l0.144-1.544h8.737V48.08h10.217V37.863h20.434V27.646h12.26
			V48.08z"/>
		<g id="Containers_8_">
			<path fill="#22B8EB" d="M31.145,50.521h0.699v7.38h-0.699V50.521z M29.804,50.521h0.727v7.38h-0.727V50.521z M28.462,50.521
				h0.727v7.38h-0.727V50.521z M27.12,50.521h0.727v7.38H27.12V50.521z M25.778,50.521h0.727v7.38h-0.727V50.521z M24.465,50.521
				h0.699v7.38h-0.699V50.521z M23.727,49.783h8.854v8.855h-8.854V49.783z"/>
			<path fill="#22B8EB" d="M41.362,40.304h0.7v7.379h-0.7V40.304z M40.021,40.304h0.727v7.379h-0.727V40.304L40.021,40.304z
				 M38.679,40.304h0.727v7.379h-0.727V40.304z M37.337,40.304h0.727v7.379h-0.727V40.304L37.337,40.304z M35.996,40.304h0.727
				v7.379h-0.727V40.304z M34.682,40.304h0.698v7.379h-0.698V40.304z M33.944,39.565h8.855v8.855h-8.855V39.565z"/>
			<path fill="#22B8EB" d="M41.362,50.521h0.7v7.38h-0.7V50.521z M40.021,50.521h0.727v7.38h-0.727V50.521L40.021,50.521z
				 M38.679,50.521h0.727v7.38h-0.727V50.521z M37.337,50.521h0.727v7.38h-0.727V50.521L37.337,50.521z M35.996,50.521h0.727v7.38
				h-0.727V50.521z M34.682,50.521h0.698v7.38h-0.698V50.521z M33.944,49.783h8.855v8.855h-8.855V49.783z"/>
			<path fill="#22B8EB" d="M51.579,50.521h0.699v7.38h-0.699V50.521z M50.238,50.521h0.727v7.38h-0.727V50.521z M48.896,50.521
				h0.727v7.38h-0.727V50.521z M47.554,50.521h0.727v7.38h-0.727V50.521z M46.212,50.521h0.727v7.38h-0.727V50.521z M44.899,50.521
				h0.698v7.38h-0.698V50.521z M44.161,49.783h8.855v8.855h-8.855V49.783z"/>
			<path fill="#22B8EB" d="M51.579,40.304h0.699v7.379h-0.699V40.304z M50.238,40.304h0.727v7.379h-0.727V40.304z M48.896,40.304
				h0.727v7.379h-0.727V40.304z M47.554,40.304h0.727v7.379h-0.727V40.304z M46.212,40.304h0.727v7.379h-0.727V40.304z
				 M44.899,40.304h0.698v7.379h-0.698V40.304z M44.161,39.565h8.855v8.855h-8.855V39.565z"/>
			<path fill="#22B8EB" d="M61.796,50.521h0.699v7.38h-0.699V50.521z M60.455,50.521h0.727v7.38h-0.727V50.521z M59.113,50.521
				h0.727v7.38h-0.727V50.521z M57.771,50.521h0.727v7.38h-0.727V50.521z M56.43,50.521h0.727v7.38H56.43V50.521z M55.116,50.521
				h0.699v7.38h-0.699V50.521z M54.378,49.783h8.855v8.855h-8.855V49.783z"/>
			<path fill="#22B8EB" d="M61.796,40.304h0.699v7.379h-0.699V40.304z M60.455,40.304h0.727v7.379h-0.727V40.304z M59.113,40.304
				h0.727v7.379h-0.727V40.304z M57.771,40.304h0.727v7.379h-0.727V40.304z M56.43,40.304h0.727v7.379H56.43V40.304z M55.116,40.304
				h0.699v7.379h-0.699V40.304z M54.378,39.565h8.855v8.855h-8.855V39.565z"/>
			<path fill="#22B8EB" d="M61.796,30.086h0.699v7.38h-0.699V30.086z M60.455,30.086h0.727v7.38h-0.727V30.086z M59.113,30.086
				h0.727v7.38h-0.727V30.086z M57.771,30.086h0.727v7.38h-0.727V30.086z M56.43,30.086h0.727v7.38H56.43V30.086z M55.116,30.086
				h0.699v7.38h-0.699V30.086z M54.378,29.349h8.855v8.855h-8.855V29.349z"/>
			<path fill="#22B8EB" d="M72.014,50.521h0.698v7.38h-0.698V50.521z M70.672,50.521h0.727v7.38h-0.727V50.521z M69.33,50.521h0.727
				v7.38H69.33V50.521z M67.988,50.521h0.727v7.38h-0.727V50.521z M66.646,50.521h0.727v7.38h-0.727V50.521z M65.333,50.521h0.699
				v7.38h-0.699V50.521z M64.595,49.783h8.855v8.855h-8.855V49.783L64.595,49.783z"/>
		</g>
	</g>
	
		<polyline fill="none" stroke="#FF0000" stroke-width="2" stroke-linecap="round" stroke-linejoin="round" stroke-miterlimit="10" points="
		93.449,69.242 87.675,63.656 81.904,69.428 76.134,63.656 70.363,69.428 64.576,63.618 58.82,69.428 53.079,63.868 47.203,69.492 
		41.454,63.744 35.738,69.428 29.954,63.868 23.955,69.492 18.331,63.744 12.831,69.618 	"/>
</g>
<g id="Layer_2_copy" display="none">
	<g display="inline">
		<path id="outline_1_" d="M64.936,48.08h10.218v10.444h5.165c2.386,0,4.84-0.425,7.099-1.19c1.11-0.376,2.356-0.9,3.451-1.559
			c-1.442-1.883-2.178-4.261-2.396-6.604c-0.294-3.188,0.349-7.337,2.507-9.832l1.074-1.242l1.279,1.029
			c3.222,2.589,5.932,6.206,6.409,10.33c3.88-1.141,8.436-0.871,11.854,1.103L113,51.366l-0.738,1.441
			c-2.893,5.645-8.938,7.393-14.85,7.084c-8.846,22.032-28.104,32.462-51.455,32.462c-12.063,0-23.131-4.51-29.434-15.212
			l-0.104-0.175l-0.918-1.868c-2.13-4.712-2.837-9.873-2.357-15.03l0.144-1.544h8.737V48.08h10.217V37.863h20.434V27.646h12.26
			V48.08z"/>
		<g display="none">
			<path display="inline" fill="#394D54" d="M25.702,80.893c1.306,0,2.549-0.034,3.732-0.101c0.103-0.006,0.202-0.014,0.304-0.021
				c0.001,0,0.002,0,0.002,0c3.006-0.186,5.608-0.587,7.781-1.207c0-0.001,0-0.001,0.001-0.001c0.395-0.112,0.778-0.231,1.145-0.358
				c0.41-0.143,0.627-0.591,0.485-1.001c-0.142-0.411-0.59-0.628-1-0.485c-2.76,0.956-6.401,1.482-10.863,1.581c0,0-0.001,0-0.001,0
				c-2.271,0.051-4.753-0.009-7.445-0.183l0,0c-0.138-0.008-0.273-0.016-0.412-0.025c-0.432-0.027-0.809,0.298-0.838,0.731
				c-0.029,0.434,0.298,0.809,0.731,0.838c0.55,0.037,1.09,0.069,1.623,0.099c0.085,0.004,0.167,0.007,0.251,0.012l0,0
				C22.771,80.851,24.274,80.893,25.702,80.893z"/>
		</g>
		<g id="Containers_1_">
			<path fill="#FFFFFF" d="M31.145,50.521h0.699v7.38h-0.699V50.521z M29.804,50.521h0.727v7.38h-0.727V50.521z M28.462,50.521
				h0.727v7.38h-0.727V50.521z M27.12,50.521h0.727v7.38H27.12V50.521z M25.778,50.521h0.727v7.38h-0.727V50.521z M24.465,50.521
				h0.699v7.38h-0.699V50.521z M23.727,49.783h8.854v8.855h-8.854V49.783z"/>
			<path fill="#FFFFFF" d="M41.362,40.304h0.7v7.379h-0.7V40.304z M40.021,40.304h0.727v7.379h-0.727V40.304L40.021,40.304z
				 M38.679,40.304h0.727v7.379h-0.727V40.304z M37.337,40.304h0.727v7.379h-0.727V40.304L37.337,40.304z M35.996,40.304h0.727
				v7.379h-0.727V40.304z M34.682,40.304h0.698v7.379h-0.698V40.304z M33.944,39.565h8.855v8.855h-8.855V39.565z"/>
			<path fill="#FFFFFF" d="M41.362,50.521h0.7v7.38h-0.7V50.521z M40.021,50.521h0.727v7.38h-0.727V50.521L40.021,50.521z
				 M38.679,50.521h0.727v7.38h-0.727V50.521z M37.337,50.521h0.727v7.38h-0.727V50.521L37.337,50.521z M35.996,50.521h0.727v7.38
				h-0.727V50.521z M34.682,50.521h0.698v7.38h-0.698V50.521z M33.944,49.783h8.855v8.855h-8.855V49.783z"/>
			<path fill="#FFFFFF" d="M51.579,50.521h0.699v7.38h-0.699V50.521z M50.238,50.521h0.727v7.38h-0.727V50.521z M48.896,50.521
				h0.727v7.38h-0.727V50.521z M47.554,50.521h0.727v7.38h-0.727V50.521z M46.212,50.521h0.727v7.38h-0.727V50.521z M44.899,50.521
				h0.698v7.38h-0.698V50.521z M44.161,49.783h8.855v8.855h-8.855V49.783z"/>
			<path fill="#FFFFFF" d="M51.579,40.304h0.699v7.379h-0.699V40.304z M50.238,40.304h0.727v7.379h-0.727V40.304z M48.896,40.304
				h0.727v7.379h-0.727V40.304z M47.554,40.304h0.727v7.379h-0.727V40.304z M46.212,40.304h0.727v7.379h-0.727V40.304z
				 M44.899,40.304h0.698v7.379h-0.698V40.304z M44.161,39.565h8.855v8.855h-8.855V39.565z"/>
			<path fill="#FFFFFF" d="M61.796,50.521h0.699v7.38h-0.699V50.521z M60.455,50.521h0.727v7.38h-0.727V50.521z M59.113,50.521
				h0.727v7.38h-0.727V50.521z M57.771,50.521h0.727v7.38h-0.727V50.521z M56.43,50.521h0.727v7.38H56.43V50.521z M55.116,50.521
				h0.699v7.38h-0.699V50.521z M54.378,49.783h8.855v8.855h-8.855V49.783z"/>
			<path fill="#FFFFFF" d="M61.796,40.304h0.699v7.379h-0.699V40.304z M60.455,40.304h0.727v7.379h-0.727V40.304z M59.113,40.304
				h0.727v7.379h-0.727V40.304z M57.771,40.304h0.727v7.379h-0.727V40.304z M56.43,40.304h0.727v7.379H56.43V40.304z M55.116,40.304
				h0.699v7.379h-0.699V40.304z M54.378,39.565h8.855v8.855h-8.855V39.565z"/>
			<path fill="#FFFFFF" d="M61.796,30.086h0.699v7.38h-0.699V30.086z M60.455,30.086h0.727v7.38h-0.727V30.086z M59.113,30.086
				h0.727v7.38h-0.727V30.086z M57.771,30.086h0.727v7.38h-0.727V30.086z M56.43,30.086h0.727v7.38H56.43V30.086z M55.116,30.086
				h0.699v7.38h-0.699V30.086z M54.378,29.349h8.855v8.855h-8.855V29.349z"/>
			<path fill="#FFFFFF" d="M72.014,50.521h0.698v7.38h-0.698V50.521z M70.672,50.521h0.727v7.38h-0.727V50.521z M69.33,50.521h0.727
				v7.38H69.33V50.521z M67.988,50.521h0.727v7.38h-0.727V50.521z M66.646,50.521h0.727v7.38h-0.727V50.521z M65.333,50.521h0.699
				v7.38h-0.699V50.521z M64.595,49.783h8.855v8.855h-8.855V49.783L64.595,49.783z"/>
		</g>
		<path fill="#FFFFFF" d="M42.245,72.994c1.349,0,2.443,1.094,2.443,2.442c0,1.35-1.094,2.443-2.443,2.443s-2.443-1.094-2.443-2.443
			C39.802,74.088,40.896,72.994,42.245,72.994"/>
		<path d="M42.245,73.688c0.224,0,0.437,0.042,0.634,0.118c-0.213,0.123-0.358,0.354-0.358,0.618c0,0.395,0.32,0.714,0.714,0.714
			c0.271,0,0.505-0.15,0.626-0.371c0.085,0.206,0.133,0.433,0.133,0.671c0,0.966-0.784,1.749-1.75,1.749
			c-0.966,0-1.75-0.783-1.75-1.749C40.495,74.471,41.279,73.688,42.245,73.688"/>
		<path fill="#FFFFFF" d="M48.739,90.598c-6.05-2.87-9.371-6.773-11.218-11.033c-2.247,0.642-4.949,1.051-8.087,1.228
			c-1.183,0.066-2.426,0.101-3.732,0.101c-1.504,0-3.09-0.045-4.754-0.133c5.548,5.544,12.373,9.812,25.01,9.892
			C46.891,90.651,47.817,90.633,48.739,90.598z"/>
	</g>
</g>
</svg>
