<?xml version="1.0" encoding="utf-8"?>
<!-- Generator: Adobe Illustrator 21.0.0, SVG Export Plug-In . SVG Version: 6.00 Build 0)  -->
<svg version="1.1" id="Lager_1" xmlns="http://www.w3.org/2000/svg" xmlns:xlink="http://www.w3.org/1999/xlink" x="0px" y="0px"
	 viewBox="0 0 128 128" style="enable-background:new 0 0 128 128;" xml:space="preserve">
<style type="text/css">
	.st0{fill:#22B8EB;}
	.st1{fill:#FFFFFF;}
	.st2{fill:none;stroke:#FF0000;stroke-width:2;stroke-linecap:round;stroke-linejoin:round;stroke-miterlimit:10;}
	.st3{display:none;}
	.st4{display:inline;}
	.st5{display:inline;fill:#394D54;}
</style>
<g id="Layer_1">
	<circle class="st0" cx="64" cy="64" r="60"/>
</g>
<g id="Layer_2">
	<g>
		<path id="outline_7_" class="st1" d="M68.9,52.1h10.2v10.4h5.2c2.4,0,4.8-0.4,7.1-1.2c1.1-0.4,2.4-0.9,3.5-1.6
			c-1.4-1.9-2.2-4.3-2.4-6.6c-0.3-3.2,0.3-7.3,2.5-9.8l1.1-1.2l1.3,1c3.2,2.6,5.9,6.2,6.4,10.3c3.9-1.1,8.4-0.9,11.9,1.1l1.4,0.8
			l-0.7,1.4c-2.9,5.6-8.9,7.4-14.8,7.1c-8.8,22-28.1,32.5-51.5,32.5c-12.1,0-23.1-4.5-29.4-15.2L20.4,81l-0.9-1.9
			c-2.1-4.7-2.8-9.9-2.4-15l0.1-1.5H26V52.1h10.2V41.9h20.4V31.6h12.3C68.9,31.6,68.9,52.1,68.9,52.1z"/>
		<g id="Containers_8_">
			<path class="st0" d="M35.1,54.5h0.7v7.4h-0.7V54.5z M33.8,54.5h0.7v7.4h-0.7V54.5z M32.5,54.5h0.7v7.4h-0.7V54.5z M31.1,54.5h0.7
				v7.4h-0.7V54.5z M29.8,54.5h0.7v7.4h-0.7V54.5z M28.5,54.5h0.7v7.4h-0.7V54.5z M27.7,53.8h8.9v8.9h-8.9
				C27.7,62.6,27.7,53.8,27.7,53.8z"/>
			<path class="st0" d="M45.4,44.3h0.7v7.4h-0.7V44.3z M44,44.3h0.7v7.4H44V44.3L44,44.3z M42.7,44.3h0.7v7.4h-0.7V44.3z M41.3,44.3
				h0.7v7.4h-0.7V44.3L41.3,44.3z M40,44.3h0.7v7.4H40V44.3z M38.7,44.3h0.7v7.4h-0.7V44.3z M37.9,43.6h8.9v8.9h-8.9V43.6z"/>
			<path class="st0" d="M45.4,54.5h0.7v7.4h-0.7V54.5z M44,54.5h0.7v7.4H44V54.5L44,54.5z M42.7,54.5h0.7v7.4h-0.7V54.5z M41.3,54.5
				h0.7v7.4h-0.7V54.5L41.3,54.5z M40,54.5h0.7v7.4H40V54.5z M38.7,54.5h0.7v7.4h-0.7V54.5z M37.9,53.8h8.9v8.9h-8.9V53.8z"/>
			<path class="st0" d="M55.6,54.5h0.7v7.4h-0.7V54.5z M54.2,54.5H55v7.4h-0.7V54.5z M52.9,54.5h0.7v7.4h-0.7V54.5z M51.6,54.5h0.7
				v7.4h-0.7V54.5z M50.2,54.5h0.7v7.4h-0.7V54.5z M48.9,54.5h0.7v7.4h-0.7V54.5z M48.2,53.8H57v8.9h-8.9V53.8z"/>
			<path class="st0" d="M55.6,44.3h0.7v7.4h-0.7V44.3z M54.2,44.3H55v7.4h-0.7V44.3z M52.9,44.3h0.7v7.4h-0.7V44.3z M51.6,44.3h0.7
				v7.4h-0.7V44.3z M50.2,44.3h0.7v7.4h-0.7V44.3z M48.9,44.3h0.7v7.4h-0.7V44.3z M48.2,43.6H57v8.9h-8.9V43.6z"/>
			<path class="st0" d="M65.8,54.5h0.7v7.4h-0.7V54.5z M64.5,54.5h0.7v7.4h-0.7V54.5z M63.1,54.5h0.7v7.4h-0.7V54.5z M61.8,54.5h0.7
				v7.4h-0.7V54.5z M60.4,54.5h0.7v7.4h-0.7V54.5z M59.1,54.5h0.7v7.4h-0.7V54.5z M58.4,53.8h8.9v8.9h-8.9V53.8z"/>
			<path class="st0" d="M65.8,44.3h0.7v7.4h-0.7V44.3z M64.5,44.3h0.7v7.4h-0.7V44.3z M63.1,44.3h0.7v7.4h-0.7V44.3z M61.8,44.3h0.7
				v7.4h-0.7V44.3z M60.4,44.3h0.7v7.4h-0.7V44.3z M59.1,44.3h0.7v7.4h-0.7V44.3z M58.4,43.6h8.9v8.9h-8.9V43.6z"/>
			<path class="st0" d="M65.8,34.1h0.7v7.4h-0.7V34.1z M64.5,34.1h0.7v7.4h-0.7V34.1z M63.1,34.1h0.7v7.4h-0.7V34.1z M61.8,34.1h0.7
				v7.4h-0.7V34.1z M60.4,34.1h0.7v7.4h-0.7V34.1z M59.1,34.1h0.7v7.4h-0.7V34.1z M58.4,33.3h8.9v8.9h-8.9V33.3z"/>
			<path class="st0" d="M76,54.5h0.7v7.4H76V54.5z M74.7,54.5h0.7v7.4h-0.7V54.5z M73.3,54.5h0.7v7.4h-0.7V54.5z M72,54.5h0.7v7.4
				H72V54.5z M70.6,54.5h0.7v7.4h-0.7V54.5z M69.3,54.5H70v7.4h-0.7V54.5z M68.6,53.8h8.9v8.9h-8.9V53.8L68.6,53.8z"/>
		</g>
	</g>
	<polyline class="st2" points="97.4,73.2 91.7,67.7 85.9,73.4 80.1,67.7 74.4,73.4 68.6,67.6 62.8,73.4 57.1,67.9 51.2,73.5 
		45.5,67.7 39.7,73.4 34,67.9 28,73.5 22.3,67.7 16.8,73.6 	"/>
</g>
<g id="Layer_2_copy" class="st3">
	<g class="st4">
		<path id="outline_1_" d="M68.9,52.1h10.2v10.4h5.2c2.4,0,4.8-0.4,7.1-1.2c1.1-0.4,2.4-0.9,3.5-1.6c-1.4-1.9-2.2-4.3-2.4-6.6
			c-0.3-3.2,0.3-7.3,2.5-9.8l1.1-1.2l1.3,1c3.2,2.6,5.9,6.2,6.4,10.3c3.9-1.1,8.4-0.9,11.9,1.1l1.4,0.8l-0.7,1.4
			c-2.9,5.6-8.9,7.4-14.8,7.1c-8.8,22-28.1,32.5-51.5,32.5c-12.1,0-23.1-4.5-29.4-15.2L20.4,81l-0.9-1.9c-2.1-4.7-2.8-9.9-2.4-15
			l0.1-1.5H26V52.1h10.2V41.9h20.4V31.6h12.3C68.9,31.6,68.9,52.1,68.9,52.1z"/>
		<g class="st3">
			<path class="st5" d="M29.7,84.9c1.3,0,2.5,0,3.7-0.1c0.1,0,0.2,0,0.3,0c0,0,0,0,0,0c3-0.2,5.6-0.6,7.8-1.2c0,0,0,0,0,0
				c0.4-0.1,0.8-0.2,1.1-0.4c0.4-0.1,0.6-0.6,0.5-1c-0.1-0.4-0.6-0.6-1-0.5c-2.8,1-6.4,1.5-10.9,1.6h0c-2.3,0.1-4.8,0-7.4-0.2l0,0
				c-0.1,0-0.3,0-0.4,0c-0.4,0-0.8,0.3-0.8,0.7c0,0.4,0.3,0.8,0.7,0.8c0.5,0,1.1,0.1,1.6,0.1c0.1,0,0.2,0,0.3,0l0,0
				C26.8,84.9,28.3,84.9,29.7,84.9z"/>
		</g>
		<g id="Containers_1_">
			<path class="st1" d="M35.1,54.5h0.7v7.4h-0.7V54.5z M33.8,54.5h0.7v7.4h-0.7V54.5z M32.5,54.5h0.7v7.4h-0.7V54.5z M31.1,54.5h0.7
				v7.4h-0.7V54.5z M29.8,54.5h0.7v7.4h-0.7V54.5z M28.5,54.5h0.7v7.4h-0.7V54.5z M27.7,53.8h8.9v8.9h-8.9
				C27.7,62.6,27.7,53.8,27.7,53.8z"/>
			<path class="st1" d="M45.4,44.3h0.7v7.4h-0.7V44.3z M44,44.3h0.7v7.4H44V44.3L44,44.3z M42.7,44.3h0.7v7.4h-0.7V44.3z M41.3,44.3
				h0.7v7.4h-0.7V44.3L41.3,44.3z M40,44.3h0.7v7.4H40V44.3z M38.7,44.3h0.7v7.4h-0.7V44.3z M37.9,43.6h8.9v8.9h-8.9V43.6z"/>
			<path class="st1" d="M45.4,54.5h0.7v7.4h-0.7V54.5z M44,54.5h0.7v7.4H44V54.5L44,54.5z M42.7,54.5h0.7v7.4h-0.7V54.5z M41.3,54.5
				h0.7v7.4h-0.7V54.5L41.3,54.5z M40,54.5h0.7v7.4H40V54.5z M38.7,54.5h0.7v7.4h-0.7V54.5z M37.9,53.8h8.9v8.9h-8.9V53.8z"/>
			<path class="st1" d="M55.6,54.5h0.7v7.4h-0.7V54.5z M54.2,54.5H55v7.4h-0.7V54.5z M52.9,54.5h0.7v7.4h-0.7V54.5z M51.6,54.5h0.7
				v7.4h-0.7V54.5z M50.2,54.5h0.7v7.4h-0.7V54.5z M48.9,54.5h0.7v7.4h-0.7V54.5z M48.2,53.8H57v8.9h-8.9V53.8z"/>
			<path class="st1" d="M55.6,44.3h0.7v7.4h-0.7V44.3z M54.2,44.3H55v7.4h-0.7V44.3z M52.9,44.3h0.7v7.4h-0.7V44.3z M51.6,44.3h0.7
				v7.4h-0.7V44.3z M50.2,44.3h0.7v7.4h-0.7V44.3z M48.9,44.3h0.7v7.4h-0.7V44.3z M48.2,43.6H57v8.9h-8.9V43.6z"/>
			<path class="st1" d="M65.8,54.5h0.7v7.4h-0.7V54.5z M64.5,54.5h0.7v7.4h-0.7V54.5z M63.1,54.5h0.7v7.4h-0.7V54.5z M61.8,54.5h0.7
				v7.4h-0.7V54.5z M60.4,54.5h0.7v7.4h-0.7V54.5z M59.1,54.5h0.7v7.4h-0.7V54.5z M58.4,53.8h8.9v8.9h-8.9V53.8z"/>
			<path class="st1" d="M65.8,44.3h0.7v7.4h-0.7V44.3z M64.5,44.3h0.7v7.4h-0.7V44.3z M63.1,44.3h0.7v7.4h-0.7V44.3z M61.8,44.3h0.7
				v7.4h-0.7V44.3z M60.4,44.3h0.7v7.4h-0.7V44.3z M59.1,44.3h0.7v7.4h-0.7V44.3z M58.4,43.6h8.9v8.9h-8.9V43.6z"/>
			<path class="st1" d="M65.8,34.1h0.7v7.4h-0.7V34.1z M64.5,34.1h0.7v7.4h-0.7V34.1z M63.1,34.1h0.7v7.4h-0.7V34.1z M61.8,34.1h0.7
				v7.4h-0.7V34.1z M60.4,34.1h0.7v7.4h-0.7V34.1z M59.1,34.1h0.7v7.4h-0.7V34.1z M58.4,33.3h8.9v8.9h-8.9V33.3z"/>
			<path class="st1" d="M76,54.5h0.7v7.4H76V54.5z M74.7,54.5h0.7v7.4h-0.7V54.5z M73.3,54.5h0.7v7.4h-0.7V54.5z M72,54.5h0.7v7.4
				H72V54.5z M70.6,54.5h0.7v7.4h-0.7V54.5z M69.3,54.5H70v7.4h-0.7V54.5z M68.6,53.8h8.9v8.9h-8.9V53.8L68.6,53.8z"/>
		</g>
		<path class="st1" d="M46.2,77c1.3,0,2.4,1.1,2.4,2.4c0,1.3-1.1,2.4-2.4,2.4s-2.4-1.1-2.4-2.4C43.8,78.1,44.9,77,46.2,77"/>
		<path d="M46.2,77.7c0.2,0,0.4,0,0.6,0.1c-0.2,0.1-0.4,0.4-0.4,0.6c0,0.4,0.3,0.7,0.7,0.7c0.3,0,0.5-0.2,0.6-0.4
			c0.1,0.2,0.1,0.4,0.1,0.7c0,1-0.8,1.7-1.8,1.7s-1.8-0.8-1.8-1.7C44.5,78.5,45.3,77.7,46.2,77.7"/>
		<path class="st1" d="M52.7,94.6c-6-2.9-9.4-6.8-11.2-11c-2.2,0.6-4.9,1.1-8.1,1.2c-1.2,0.1-2.4,0.1-3.7,0.1c-1.5,0-3.1,0-4.8-0.1
			c5.5,5.5,12.4,9.8,25,9.9C50.9,94.7,51.8,94.6,52.7,94.6z"/>
	</g>
</g>
</svg>
